<?xml version="1.0" standalone="no"?>
<!DOCTYPE svg PUBLIC "-//W3C//DTD SVG 20010904//EN"
 "http://www.w3.org/TR/2001/REC-SVG-20010904/DTD/svg10.dtd">
<svg version="1.0" xmlns="http://www.w3.org/2000/svg"
 width="1200.000000pt" height="1200.000000pt" viewBox="0 0 1200.000000 1200.000000"
 preserveAspectRatio="xMidYMid meet">

<g transform="translate(0.000000,1200.000000) scale(0.100000,-0.100000)"
fill="#000000" stroke="none">
<path d="M9240 11840 c-18 -11 -457 -440 -769 -750 -312 -311 -458 -492 -610
-760 -76 -134 -181 -371 -226 -510 -79 -246 -208 -489 -260 -490 -11 0 -40 7
-65 16 -30 10 -110 19 -234 26 -159 8 -205 7 -295 -7 -272 -42 -566 -121 -788
-211 -76 -30 -194 -78 -262 -106 -68 -27 -167 -69 -218 -93 l-94 -42 -117 44
c-64 24 -156 57 -203 73 -76 26 -220 92 -544 251 -169 82 -501 308 -874 593
-101 78 -205 157 -231 176 -27 19 -75 71 -108 115 -142 193 -329 394 -506 543
-50 42 -112 95 -138 119 -65 59 -98 56 -98 -9 0 -20 -1 -20 -18 -5 -64 58 -73
0 -73 -504 -1 -782 2 -889 37 -1169 57 -462 215 -955 386 -1207 15 -23 28 -44
28 -47 0 -11 -46 -6 -107 13 -35 11 -63 17 -63 15 0 -38 127 -221 224 -322 70
-73 181 -156 233 -173 l35 -11 -52 -53 c-39 -39 -69 -59 -114 -75 -90 -33
-164 -81 -232 -152 -95 -99 -125 -161 -194 -407 -22 -75 -30 -126 -30 -180 0
-107 24 -270 54 -374 40 -134 32 -220 -29 -354 -66 -143 -147 -243 -360 -441
-92 -87 -97 -101 -32 -102 15 0 27 -3 27 -8 0 -4 -19 -30 -41 -57 -68 -81
-107 -146 -124 -206 -8 -31 -23 -63 -33 -71 -9 -8 -57 -29 -107 -47 -111 -41
-313 -145 -420 -216 -160 -106 -317 -260 -432 -424 -67 -95 -76 -127 -69 -241
4 -65 2 -117 -8 -165 -22 -108 -29 -277 -16 -395 26 -248 107 -564 180 -710
66 -131 179 -264 251 -294 36 -15 37 -17 58 -113 80 -362 142 -533 267 -725
l44 -69 3 -137 c2 -152 6 -164 85 -258 42 -52 181 -159 292 -226 69 -41 200
-98 227 -98 6 0 57 -57 112 -127 129 -165 216 -254 266 -275 219 -93 361 -136
518 -157 143 -20 489 -11 562 14 16 6 17 5 5 -4 -12 -9 -10 -11 10 -6 14 3 58
12 98 20 103 21 453 162 772 310 74 35 147 66 161 70 21 5 46 -5 120 -50 987
-592 2437 -676 3838 -223 459 149 937 382 1269 621 233 167 518 424 659 593
474 571 796 1322 900 2104 25 189 25 687 0 840 -36 213 -47 398 -47 766 0 41
-52 -8 -121 -113 -23 -35 -44 -63 -48 -63 -3 0 -5 66 -3 146 4 175 -6 261 -59
499 -41 181 -48 256 -40 415 1 41 3 93 2 115 l-1 40 -23 -40 c-30 -52 -183
-209 -191 -196 -4 5 -1 41 5 80 25 152 -25 396 -151 736 -94 254 -125 352
-145 469 -31 180 -16 284 66 455 51 104 82 173 100 219 l9 24 -27 -22 c-16
-11 -47 -35 -70 -53 -53 -41 -191 -190 -223 -241 -24 -39 -24 -39 -33 -15 -74
185 -205 351 -397 504 -41 32 -76 60 -78 61 -5 3 -73 446 -102 664 -16 124
-38 277 -49 340 -11 63 -25 169 -31 235 -53 563 -192 1132 -395 1615 -29 69
-92 208 -140 310 -48 102 -103 221 -123 265 -20 44 -37 81 -38 83 -4 7 -59
-32 -96 -67 l-38 -35 0 41 c0 43 -8 73 -19 73 -3 0 -13 -5 -21 -10z m6 -995
c15 -83 43 -193 70 -270 74 -214 121 -373 210 -710 72 -274 96 -379 139 -615
l7 -35 -23 44 -22 44 -16 -54 c-16 -57 -17 -182 -1 -254 10 -46 19 -55 -82 77
-32 40 -70 86 -87 102 l-29 28 9 -48 c13 -69 22 -97 68 -207 87 -208 134 -450
135 -687 1 -143 -12 -306 -24 -293 -14 17 -30 93 -30 147 0 54 -1 56 -20 46
-60 -32 -174 -225 -213 -360 -25 -84 -25 -84 -37 -55 -6 17 -15 48 -19 70 -11
63 -33 57 -77 -22 -88 -157 -123 -299 -101 -406 8 -39 8 -39 -20 -33 -48 11
-373 -12 -434 -29 l-56 -17 -69 36 -69 35 57 1 c69 0 88 7 88 30 0 20 -42 54
-119 95 -59 32 -61 30 44 60 137 39 312 154 363 238 19 30 48 116 35 104 -3
-4 -14 -2 -24 4 -13 7 -44 5 -100 -6 -45 -8 -85 -15 -90 -15 -5 0 10 24 34 53
133 163 210 360 328 832 60 243 83 385 77 485 l-3 55 -37 -115 c-21 -63 -69
-240 -108 -394 -116 -460 -180 -634 -293 -804 -49 -73 -76 -104 -102 -116
-100 -48 29 -73 191 -37 l89 20 -86 -83 c-96 -92 -187 -143 -339 -191 l-85
-27 -97 57 c-54 31 -98 59 -98 62 0 3 17 2 38 -2 43 -7 77 11 67 37 -4 9 -34
26 -68 38 -151 55 -269 129 -327 206 -24 32 -68 87 -97 121 -49 58 -59 83 -32
83 5 0 43 16 85 36 55 26 83 46 104 76 40 55 40 78 -1 78 -26 0 -30 3 -24 18
28 74 37 146 45 372 9 268 23 386 75 621 41 184 91 346 148 478 51 120 356
560 597 861 42 52 93 118 113 147 21 29 73 81 116 117 43 35 102 92 132 126
l54 63 8 -89 c5 -49 19 -152 33 -229z m-6000 -1415 c72 -113 171 -272 221
-355 77 -129 89 -155 86 -185 -6 -47 23 -111 126 -279 90 -147 149 -228 225
-308 l49 -53 -34 -13 c-19 -7 -47 -18 -64 -23 -20 -6 -30 -16 -30 -29 0 -15
21 -27 95 -55 52 -19 101 -39 107 -43 8 -5 -29 -41 -112 -108 -106 -84 -215
-176 -312 -262 l-22 -20 -43 28 c-24 15 -77 58 -120 94 l-76 66 61 6 c67 7
127 32 127 54 0 7 -24 33 -53 58 -145 124 -339 424 -386 598 -29 104 -49 237
-66 434 -15 166 -35 625 -35 775 l1 75 62 -125 c35 -69 122 -217 193 -330z
m3318 -2036 c100 -26 347 -124 401 -159 65 -44 101 -82 168 -181 66 -99 95
-170 115 -293 24 -146 0 -441 -50 -600 -14 -45 -5 -49 89 -39 147 14 309 -42
520 -181 276 -181 480 -378 636 -616 114 -173 236 -467 293 -705 20 -85 45
-173 54 -195 l17 -40 7 65 c3 36 7 81 9 100 l2 35 22 -40 c11 -22 52 -75 90
-118 l68 -78 12 68 c7 37 16 106 22 153 7 69 42 219 67 289 2 8 24 -42 49
-110 24 -68 66 -189 95 -268 91 -258 120 -470 120 -882 0 -119 3 -219 7 -223
4 -4 16 3 26 16 18 23 18 23 12 -32 -5 -40 -13 -62 -32 -82 l-27 -28 58 0 c65
0 105 17 157 67 l36 35 21 -34 c12 -19 74 -86 140 -150 l118 -116 -85 -28
c-160 -52 -324 -145 -527 -299 -66 -51 -169 -125 -229 -165 -91 -61 -106 -75
-90 -81 105 -41 353 -155 349 -161 -3 -4 -11 -5 -19 -2 -25 10 -219 -25 -345
-61 -219 -64 -512 -176 -672 -256 -107 -54 -420 -188 -568 -244 -63 -23 -122
-46 -131 -49 -12 -5 -29 10 -66 61 -79 109 -438 485 -555 581 l-67 56 27 16
c15 9 34 29 42 44 16 30 12 30 135 11 49 -8 94 19 140 84 27 38 30 50 29 109
-2 94 -42 182 -83 182 -9 0 -47 48 -90 113 -40 61 -99 150 -129 196 -79 119
-255 297 -436 441 -327 259 -412 281 -621 158 -169 -100 -284 -179 -660 -457
-592 -438 -738 -530 -996 -631 -241 -94 -397 -120 -713 -120 -254 0 -418 10
-661 41 -87 11 -195 22 -240 24 -131 6 -224 17 -238 29 -8 6 -41 88 -75 181
-33 94 -63 178 -67 187 -5 13 2 19 36 28 165 45 296 187 324 353 l6 37 77 0
c65 0 87 5 140 30 78 37 155 109 236 220 119 164 159 243 209 410 46 152 57
230 57 395 l0 155 35 0 c47 0 88 18 178 79 132 89 521 286 642 325 186 61 628
166 641 153 2 -2 -26 -20 -61 -41 -36 -21 -65 -40 -65 -42 0 -2 17 2 38 10 73
28 278 85 347 97 66 11 254 7 317 -7 53 -12 36 47 -48 166 -43 61 -84 146
-128 262 -20 53 -36 100 -36 103 0 4 45 3 100 0 89 -7 103 -5 140 14 22 11 40
17 40 13 -1 -4 -7 -34 -15 -67 -19 -79 -19 -162 2 -246 16 -69 16 -70 -5 -99
-40 -53 -20 -79 33 -44 22 14 43 15 201 4 302 -22 476 -5 645 64 180 72 340
208 404 340 19 40 35 78 35 84 0 6 16 38 35 71 19 32 35 62 35 65 0 4 -27 19
-60 35 -33 16 -81 45 -107 64 -81 58 -185 105 -298 133 -29 7 -29 7 25 25 85
28 188 24 323 -10 63 -17 139 -33 168 -36 l54 -6 -46 29 c-92 60 -296 109
-404 98 -236 -24 -698 -213 -977 -399 l-117 -78 -44 33 c-25 18 -64 46 -87 62
-33 22 -51 47 -78 105 -36 76 -36 76 -36 211 0 222 53 414 175 637 115 211
341 381 647 487 227 79 430 99 586 60z m-3349 -321 c22 -12 61 -43 86 -70 37
-39 52 -67 77 -143 34 -101 38 -147 22 -250 -30 -186 -256 -506 -381 -540 -55
-14 -119 -63 -119 -91 0 -26 38 -25 83 1 18 11 57 24 86 30 59 11 101 -1 153
-45 24 -21 26 -25 11 -25 -41 0 -119 -52 -166 -111 l-48 -59 31 -87 c35 -99
60 -141 101 -169 15 -10 26 -22 23 -26 -3 -4 -96 -70 -207 -146 -326 -225
-587 -375 -587 -337 0 2 26 33 58 68 31 35 107 130 167 212 61 81 136 177 168
212 32 35 70 89 84 119 22 50 63 213 63 257 0 39 -32 86 -66 99 -36 13 -40 20
-68 138 -27 110 -47 279 -49 405 -2 120 -2 121 52 295 33 104 66 192 83 218
16 23 30 42 31 42 1 0 20 7 42 15 59 23 217 15 270 -12z m3387 -1055 c34 -18
81 -50 105 -73 l44 -40 -15 -35 c-30 -72 -109 -196 -154 -243 -80 -82 -253
-180 -377 -212 -116 -30 -311 -47 -475 -42 -85 3 -163 9 -172 12 -36 14 -53
74 -52 185 1 123 23 199 76 259 30 34 234 159 243 149 3 -2 0 -31 -5 -64 -11
-66 -6 -124 17 -199 36 -116 99 -186 213 -236 101 -45 189 -47 270 -7 86 42
142 107 206 237 35 71 45 213 20 287 -9 26 -16 49 -16 51 0 7 16 1 72 -29z
m-3435 -242 c1 -76 28 -140 78 -184 l33 -30 -28 -20 c-27 -20 -28 -20 -57 -2
-17 10 -40 31 -51 47 -26 36 -82 175 -75 186 7 11 84 67 93 67 3 0 7 -29 7
-64z m747 -228 c-13 -23 -126 -160 -244 -298 -64 -74 -170 -198 -236 -275 -66
-77 -130 -154 -143 -171 l-23 -31 -67 66 c-44 44 -92 79 -144 105 -43 22 -74
42 -70 46 39 33 403 269 558 362 70 42 367 208 373 208 2 0 0 -6 -4 -12z
m-2675 -1866 c42 -39 207 -132 235 -132 23 0 106 -96 117 -135 6 -22 25 -68
41 -102 93 -197 243 -298 439 -296 l87 1 16 -67 c9 -36 37 -111 62 -166 65
-142 65 -131 -3 -139 -90 -10 -267 -59 -395 -110 -108 -43 -122 -46 -200 -45
-67 2 -75 3 -43 9 40 7 40 7 -13 9 -128 3 -188 71 -295 336 -49 121 -89 268
-111 415 -20 128 -37 391 -29 464 l6 59 21 -29 c11 -16 40 -48 65 -72z m4966
24 c63 -30 218 -138 303 -212 l33 -29 -50 -103 c-51 -104 -141 -251 -165 -271
-11 -9 -36 1 -112 45 -55 32 -123 68 -153 81 l-54 24 -21 -20 c-15 -14 -26
-17 -36 -11 -24 15 -27 13 -61 -47 -56 -101 -136 -202 -156 -197 -10 2 -73 17
-140 34 -67 16 -132 30 -145 30 -25 -1 -45 -25 -216 -270 -56 -80 -113 -157
-127 -172 -31 -33 -44 -34 -230 -14 -114 13 -244 21 -282 17 -7 -1 -19 -16
-27 -33 -8 -18 -21 -42 -29 -52 -14 -19 -15 -19 -52 12 -21 17 -42 29 -46 26
-4 -2 -53 -95 -109 -207 -57 -111 -119 -229 -139 -261 l-36 -59 -97 102 -97
102 -15 -23 c-9 -13 -21 -39 -27 -56 l-11 -33 -30 41 c-34 45 -51 50 -72 18
-25 -41 -35 -90 -55 -278 -30 -275 -34 -370 -22 -525 10 -131 40 -327 56 -367
15 -37 -16 -15 -117 84 -226 223 -397 487 -513 793 -21 55 -47 124 -58 153
-31 82 -51 81 -151 -9 l-59 -53 -46 53 -47 53 -109 4 c-61 2 -179 12 -263 22
-176 20 -175 20 -197 -65 l-12 -46 -64 96 c-89 133 -114 144 -150 63 -46 -106
-66 -423 -34 -566 8 -36 14 -69 15 -74 0 -21 -43 33 -84 103 -106 184 -157
309 -230 566 -26 88 -51 174 -56 191 -6 17 -10 35 -10 41 0 6 35 13 78 17 50
5 134 25 243 60 288 93 279 92 515 72 112 -9 245 -25 297 -36 162 -33 363 -51
627 -57 224 -5 276 -3 428 16 282 36 493 99 712 213 213 111 337 199 1124 796
218 166 259 193 344 228 84 35 151 32 237 -10z m529 -425 c28 -29 35 -42 25
-45 -8 -3 -73 -19 -146 -36 -76 -18 -143 -40 -158 -51 -20 -17 -17 -7 21 58
42 70 69 124 95 191 9 24 10 23 67 -26 31 -28 75 -69 96 -91z m136 -152 c30
-39 78 -100 105 -135 28 -35 59 -77 68 -94 18 -29 18 -30 -1 -30 -37 0 -108
-31 -160 -70 -44 -34 -60 -40 -101 -40 -63 0 -106 -30 -141 -97 l-26 -53 -80
56 c-43 30 -116 78 -160 105 l-82 50 86 135 c47 75 96 142 109 151 17 11 266
82 323 92 3 1 30 -31 60 -70z m-731 -8 c64 -38 133 -77 154 -87 l37 -18 30 29
c26 25 21 13 -29 -74 -33 -57 -64 -108 -69 -113 -4 -4 -49 14 -99 42 -50 28
-138 70 -195 94 l-105 42 23 35 c13 19 28 49 34 67 12 32 24 40 35 22 11 -17
43 -11 50 10 3 11 9 20 12 20 3 0 58 -31 122 -69z m3328 -383 c-43 -61 -114
-188 -129 -233 -10 -27 -17 -70 -18 -94 l0 -44 -22 20 c-34 31 -102 71 -155
92 l-47 18 104 70 c58 38 143 97 188 131 46 34 86 62 89 62 3 0 -2 -10 -10
-22z m-4108 -183 c21 -27 47 -66 59 -85 l21 -36 -82 12 c-45 7 -88 9 -96 4
-11 -6 -48 -91 -74 -171 -4 -13 -40 -17 -219 -28 -117 -7 -221 -14 -230 -17
-24 -7 -97 -112 -139 -197 -29 -57 -37 -67 -54 -62 -11 3 -37 9 -57 12 -34 5
-39 3 -55 -26 -17 -31 -20 -32 -65 -26 -42 5 -49 3 -62 -17 -8 -13 -19 -42
-26 -66 -8 -33 -15 -42 -28 -38 -9 3 -64 16 -122 30 -58 13 -117 29 -132 35
-40 15 -51 8 -98 -67 -23 -37 -53 -73 -67 -79 l-25 -12 6 48 c3 26 10 103 16
171 5 67 13 127 17 131 5 5 24 -7 43 -26 36 -38 60 -45 60 -19 0 9 5 34 12 56
l11 39 51 -49 c55 -53 127 -102 150 -102 8 0 17 9 21 20 3 11 23 43 43 72 20
29 75 137 123 240 l86 187 24 -17 c13 -9 30 -22 37 -29 7 -7 16 -13 20 -13 10
0 34 17 31 21 -5 7 44 88 56 93 6 2 72 -3 146 -11 74 -8 180 -13 236 -11 101
3 102 3 138 38 20 19 53 57 73 84 l36 49 39 -44 c21 -24 56 -66 76 -94z m91
-164 c22 -5 48 -32 114 -121 47 -63 85 -119 83 -125 -4 -15 -149 -85 -494
-238 -171 -77 -362 -168 -424 -203 -281 -157 -500 -270 -698 -359 -118 -52
-216 -93 -219 -91 -2 3 -7 84 -10 181 l-5 175 54 58 c30 31 70 81 88 110 30
48 37 53 60 47 74 -19 209 -45 233 -45 14 0 28 -5 30 -11 7 -22 55 31 68 76
l13 45 48 0 c39 0 51 4 68 26 20 25 22 26 71 13 55 -14 62 -11 77 36 6 17 41
74 78 128 61 87 71 97 99 97 17 0 114 7 215 14 174 13 185 15 203 37 24 29 78
139 78 157 0 10 15 12 70 6 39 -4 84 -9 100 -13z m3563 -299 c-89 -86 -182
-185 -207 -219 -26 -34 -55 -65 -66 -68 -11 -4 -18 -11 -14 -16 3 -5 8 -8 12
-5 4 2 42 7 84 10 94 8 159 20 217 40 24 9 47 16 52 16 24 0 -43 -109 -123
-201 -50 -57 -146 -171 -212 -254 -67 -82 -154 -190 -194 -240 -177 -218 -321
-470 -428 -745 -26 -69 -53 -130 -58 -136 -12 -13 -158 -36 -376 -60 -202 -21
-676 -30 -881 -15 -183 14 -402 42 -554 72 -117 24 -334 77 -351 87 -6 4 -39
48 -72 97 -119 178 -250 308 -346 344 l-50 18 50 16 c27 9 108 34 181 56 125
38 134 39 167 26 54 -23 167 -118 356 -301 222 -214 317 -293 276 -229 -102
160 -312 383 -484 512 l-82 62 39 11 c65 17 286 85 458 140 l162 52 66 -47
c54 -39 80 -68 137 -154 39 -58 84 -121 100 -139 15 -18 28 -39 28 -47 0 -31
56 -76 153 -124 139 -67 161 -72 276 -61 151 15 211 41 257 110 14 20 36 43
51 51 14 8 32 28 40 46 7 18 27 43 44 55 37 27 115 135 124 169 3 13 7 42 9
64 2 22 7 60 11 85 6 39 3 50 -19 83 -14 21 -26 44 -26 52 0 34 -36 103 -72
140 -22 22 -64 77 -93 121 l-53 82 33 5 c18 3 73 23 122 45 48 22 122 53 163
68 41 15 158 66 260 114 197 94 601 249 840 324 80 25 147 45 150 45 3 1 -68
-70 -157 -157z m-6889 -123 c20 -52 52 -119 70 -148 34 -53 34 -53 20 -99 -17
-59 -18 -95 -2 -90 7 3 19 22 27 44 9 21 19 41 23 42 4 2 8 11 8 20 1 13 5 12
22 -8 11 -14 25 -36 30 -50 25 -70 408 -166 439 -110 5 8 16 33 25 55 l16 40
29 -60 c18 -39 31 -84 35 -130 8 -89 19 -66 39 85 25 191 89 417 131 460 12
12 14 10 14 -19 0 -69 68 -267 138 -405 50 -99 170 -281 232 -356 l40 -48
-115 -12 c-171 -18 -348 -9 -555 30 -426 79 -625 151 -724 260 -29 32 -35 48
-41 104 -12 111 0 392 20 476 20 86 13 94 79 -81z m356 70 c63 -6 116 -13 118
-14 2 -2 -4 -15 -13 -29 l-17 -26 -44 26 c-24 14 -53 24 -66 22 -30 -4 -91
-87 -126 -171 -28 -65 -29 -66 -40 -42 -12 26 -31 32 -48 15 -9 -9 -43 52 -82
150 -3 8 11 0 31 -17 21 -18 42 -33 47 -33 15 0 30 36 30 74 0 60 8 69 54 63
23 -3 93 -11 156 -18z m312 -51 l36 -51 -38 -19 c-57 -28 -247 -212 -262 -253
-6 -19 -18 -35 -26 -35 -7 0 -47 14 -88 31 -98 41 -100 53 -22 207 29 56 57
102 63 102 5 0 30 -14 55 -30 53 -35 74 -37 93 -9 11 14 16 17 19 7 3 -7 11
10 18 39 13 51 14 52 54 56 23 2 46 4 52 5 6 1 27 -21 46 -50z m3114 -170
c146 -175 340 -376 489 -506 66 -58 124 -109 129 -113 5 -5 7 -11 5 -14 -3 -2
-84 -20 -180 -39 -95 -19 -291 -67 -434 -106 -600 -164 -919 -272 -1120 -379
-49 -27 -178 -83 -285 -126 -107 -43 -253 -104 -325 -137 -125 -57 -135 -59
-245 -68 -260 -21 -505 -8 -720 39 -129 29 -179 45 -290 98 -137 64 -131 60
-205 153 -37 47 -84 102 -104 124 -34 36 -35 38 -11 32 14 -3 75 -9 135 -12
146 -8 470 38 784 111 206 48 228 52 253 39 35 -18 67 -18 74 1 4 8 15 15 25
15 11 0 36 8 57 19 20 10 71 29 112 41 147 43 433 213 744 444 116 86 175 120
512 296 226 117 353 173 422 185 24 4 46 13 49 21 3 8 8 14 12 14 4 0 57 -60
117 -132z m-2991 20 c-13 -42 -30 -106 -36 -143 l-13 -67 -15 39 c-23 54 -30
63 -52 63 -14 0 -28 -18 -52 -67 -29 -61 -35 -68 -64 -71 -17 -2 -52 3 -77 10
l-46 14 149 147 c146 146 149 148 176 135 24 -11 30 -10 39 4 18 29 16 15 -9
-64z m4423 -330 c19 1 48 -6 65 -14 28 -15 31 -15 43 1 12 16 15 16 49 -5 40
-24 70 -20 62 9 -3 14 15 7 80 -32 86 -51 107 -76 96 -116 -5 -21 42 -106 73
-131 7 -7 14 -22 14 -33 0 -18 -6 -15 -42 20 -24 23 -59 49 -79 57 -24 10 -39
24 -43 40 -12 47 -61 37 -78 -16 -3 -9 -12 -9 -37 2 -20 8 -35 9 -39 4 -4 -5
-24 -9 -46 -9 -28 0 -42 -5 -50 -20 -17 -31 -25 -33 -87 -28 l-59 6 0 -46 c0
-69 -5 -76 -50 -70 -36 5 -41 3 -57 -26 -11 -20 -28 -34 -46 -38 -16 -3 -36
-18 -45 -32 -9 -14 -23 -31 -30 -36 -7 -6 -14 -36 -15 -73 -2 -49 -6 -63 -19
-68 -49 -16 7 -103 95 -147 59 -30 111 -77 86 -77 -8 0 -30 10 -49 23 -19 13
-60 34 -91 46 -63 25 -93 52 -103 93 -3 14 -21 46 -39 70 -18 24 -39 59 -47
78 -7 19 -25 50 -38 68 l-25 32 52 -26 c75 -40 84 -24 38 70 -38 77 -43 91
-29 82 22 -14 122 -22 131 -12 11 13 0 71 -24 129 l-15 37 45 0 c59 0 79 20
94 98 7 34 13 62 15 62 2 0 24 -9 50 -20 49 -22 86 -15 86 15 0 9 10 15 25 15
16 0 25 6 25 16 0 9 5 12 12 8 6 -4 27 -7 46 -6z m337 -258 c40 -15 123 -99
130 -130 14 -64 -65 -210 -121 -224 -15 -4 -29 -20 -38 -41 -11 -25 -23 -36
-48 -43 -27 -7 -36 -16 -46 -47 -17 -51 -29 -64 -77 -85 -40 -17 -185 -36
-235 -31 -14 1 -41 17 -60 35 -19 18 -60 44 -91 60 -62 30 -92 71 -66 91 8 6
14 30 15 62 1 67 35 130 75 139 15 3 39 21 53 39 22 30 30 33 56 28 40 -8 58
15 58 74 l0 43 45 -6 c59 -7 84 2 96 33 8 22 13 24 48 18 23 -4 42 -2 45 4 5
7 15 6 33 -2 24 -11 28 -9 52 21 l26 32 13 -30 c7 -17 24 -35 37 -40z m-795
-220 c0 -5 -2 -10 -4 -10 -3 0 -8 5 -11 10 -3 6 -1 10 4 10 6 0 11 -4 11 -10z"/>
<path d="M8906 10228 c-3 -13 -7 -144 -9 -293 -3 -196 -9 -296 -22 -365 -15
-87 -72 -274 -124 -409 -11 -30 -23 -72 -25 -93 -3 -21 -8 -43 -12 -49 -17
-28 67 30 108 75 l48 51 0 -40 1 -40 19 23 c24 29 50 113 50 159 0 28 -4 33
-23 33 -17 0 -34 -15 -62 -55 -21 -31 -39 -54 -41 -52 -2 2 16 42 40 90 122
242 151 602 76 935 -13 58 -17 63 -24 30z"/>
<path d="M9059 9293 c-46 -49 -135 -166 -155 -205 l-16 -30 32 18 c78 45 186
187 178 235 -3 18 -7 16 -39 -18z"/>
<path d="M5050 4955 c-47 -8 -134 -32 -195 -55 -60 -22 -98 -38 -84 -35 14 2
59 9 100 15 41 6 112 18 159 27 54 11 129 16 205 16 108 -1 154 -8 255 -39 22
-7 24 -6 12 9 -20 24 -108 54 -196 66 -96 14 -148 13 -256 -4z"/>
<path d="M4526 4610 c-344 -40 -718 -187 -916 -360 -29 -25 -8 -18 109 40 180
90 330 151 446 184 227 63 489 92 689 76 166 -14 243 -34 425 -110 41 -16 76
-29 78 -26 7 7 -91 87 -132 108 -56 29 -140 57 -220 74 -86 18 -371 26 -479
14z"/>
<path d="M6151 4368 c-111 -22 -216 -64 -301 -119 -70 -45 -217 -183 -244
-229 l-18 -32 28 16 c31 16 43 25 175 125 92 70 193 121 339 171 117 40 141
38 280 -22 58 -25 121 -49 140 -53 31 -7 33 -6 21 8 -40 49 -215 139 -291 150
-19 2 -78 -4 -129 -15z"/>
<path d="M7576 3024 c19 -53 54 -138 79 -190 25 -52 45 -99 45 -105 0 -18
-105 -172 -186 -273 -92 -113 -99 -143 -23 -90 70 48 269 322 269 370 0 31
-92 207 -159 307 -29 42 -55 77 -57 77 -2 0 12 -43 32 -96z"/>
<path d="M6645 3065 c28 -8 59 -14 70 -14 l20 0 -20 8 c-11 5 -42 11 -70 14
l-50 6 50 -14z"/>
<path d="M8548 1871 c-50 -101 -211 -348 -338 -518 -69 -93 -142 -196 -163
-230 -21 -35 -42 -63 -48 -63 -18 0 -9 -29 12 -35 25 -8 96 1 150 20 21 8 39
12 39 9 0 -10 -208 -226 -303 -313 -144 -132 -251 -221 -412 -344 -77 -58
-162 -127 -190 -152 -49 -45 -50 -45 -15 -32 175 70 286 138 460 282 208 173
473 460 530 575 12 25 41 62 64 82 40 37 41 37 11 29 -33 -9 -103 -35 -208
-75 l-67 -26 74 75 c204 206 450 630 434 748 -2 20 -7 15 -30 -32z"/>
<path d="M7284 1334 c-13 -19 -14 -28 -5 -37 8 -8 11 -7 11 5 0 8 6 21 14 27
11 9 18 6 35 -16 19 -26 20 -26 21 -7 0 22 -28 54 -48 54 -6 0 -19 -11 -28
-26z"/>
<path d="M7063 1263 c-4 -10 -11 -21 -16 -24 -5 -4 -4 -16 4 -30 l13 -24 8 33
c9 35 20 39 58 17 14 -8 28 -14 33 -15 12 0 8 17 -5 23 -7 3 -30 12 -51 21
-35 15 -38 15 -44 -1z"/>
<path d="M7526 1099 c10 -19 17 -43 15 -54 -2 -19 -2 -19 15 -3 16 16 16 18
-2 49 -27 45 -51 52 -28 8z"/>
<path d="M7435 1020 c-13 -6 -15 -9 -5 -9 8 0 22 4 30 9 18 12 2 12 -25 0z"/>
<path d="M7264 951 c-16 -17 -37 -39 -46 -50 -17 -20 -17 -21 2 -21 11 0 31
18 50 46 38 54 34 67 -6 25z"/>
<path d="M7470 905 c-14 -15 -38 -34 -53 -42 -16 -8 -27 -17 -24 -19 7 -7 81
31 96 50 23 28 6 38 -19 11z"/>
</g>
</svg>
